# xmcd
#
# Track frame offsets: 
#        150
#        12762
#        23812
#        40575
#        51587
#        60707
#        71532
#        88540
#        102875
#        117172
#        127502
#        144112
#
# Disc length: 2039 seconds
#
# Revision: 1
# Processed by: cddbd v1.5.2PL0 Copyright (c) Steve Scherf et al.
# Submitted via: ExactAudioCopy v0.99pb5
#
DISCID=8f07f50c
DTITLE=The Rolling Stones - Out Of Our Heads
DYEAR=1965
DGENRE=Rhythm and Blues
TTITLE0=Mercy Mercy
TTITLE1=Hitch Hike
TTITLE2=The Last Time
TTITLE3=That's How Strong My Love Is
TTITLE4=Good Times
TTITLE5=I'm All Right
TTITLE6=Satisfaction
TTITLE7=Cry To Me
TTITLE8=The Under Assistant West Coast Promotion Man
TTITLE9=Play With Fire
TTITLE10=The Spider And The Fly
TTITLE11=One More Try
EXTD=YEAR: 1965
EXTT0=
EXTT1=
EXTT2=
EXTT3=
EXTT4=
EXTT5=
EXTT6=
EXTT7=
EXTT8=
EXTT9=
EXTT10=
EXTT11=
PLAYORDER=
